name C:\Users\u0150099\Documents\master_thesis\3dpredictsim\Results\debug\Fal_s1_mtjc3_sc_cspx10_oy2_MTc2_MTPm_k1_d01_MTJm_nl_MG_exp5_table_d01_PF_Gefen2002_ls146_ig21.mot
datacolumns 128
datarows 4
range 1.76092193 1.79614037
endheader
time	pelvis_tilt	pelvis_list	pelvis_rotation	pelvis_tx	pelvis_ty	pelvis_tz	hip_flexion_l	hip_adduction_l	hip_rotation_l	hip_flexion_r	hip_adduction_r	hip_rotation_r	knee_angle_l	knee_angle_r	ankle_angle_l	ankle_angle_r	subtalar_angle_l	subtalar_angle_r	mtj_angle_l	mtj_angle_r	mtp_angle_l	mtp_angle_r	lumbar_extension	lumbar_bending	lumbar_rotation	arm_flex_l	arm_add_l	arm_rot_l	arm_flex_r	arm_add_r	arm_rot_r	elbow_flex_l	elbow_flex_r	pro_sup_l	pro_sup_r	glut_med1_l/activation	glut_med2_l/activation	glut_med3_l/activation	glut_min1_l/activation	glut_min2_l/activation	glut_min3_l/activation	semimem_l/activation	semiten_l/activation	bifemlh_l/activation	bifemsh_l/activation	sar_l/activation	add_long_l/activation	add_brev_l/activation	add_mag1_l/activation	add_mag2_l/activation	add_mag3_l/activation	tfl_l/activation	pect_l/activation	grac_l/activation	glut_max1_l/activation	glut_max2_l/activation	glut_max3_l/activation	iliacus_l/activation	psoas_l/activation	quad_fem_l/activation	gem_l/activation	peri_l/activation	rect_fem_l/activation	vas_med_l/activation	vas_int_l/activation	vas_lat_l/activation	med_gas_l/activation	lat_gas_l/activation	soleus_l/activation	tib_post_l/activation	flex_dig_l/activation	flex_hal_l/activation	tib_ant_l/activation	per_brev_l/activation	per_long_l/activation	per_tert_l/activation	ext_dig_l/activation	ext_hal_l/activation	ercspn_l/activation	intobl_l/activation	extobl_l/activation	glut_med1_r/activation	glut_med2_r/activation	glut_med3_r/activation	glut_min1_r/activation	glut_min2_r/activation	glut_min3_r/activation	semimem_r/activation	semiten_r/activation	bifemlh_r/activation	bifemsh_r/activation	sar_r/activation	add_long_r/activation	add_brev_r/activation	add_mag1_r/activation	add_mag2_r/activation	add_mag3_r/activation	tfl_r/activation	pect_r/activation	grac_r/activation	glut_max1_r/activation	glut_max2_r/activation	glut_max3_r/activation	iliacus_r/activation	psoas_r/activation	quad_fem_r/activation	gem_r/activation	peri_r/activation	rect_fem_r/activation	vas_med_r/activation	vas_int_r/activation	vas_lat_r/activation	med_gas_r/activation	lat_gas_r/activation	soleus_r/activation	tib_post_r/activation	flex_dig_r/activation	flex_hal_r/activation	tib_ant_r/activation	per_brev_r/activation	per_long_r/activation	per_tert_r/activation	ext_dig_r/activation	ext_hal_r/activation	ercspn_r/activation	intobl_r/activation	extobl_r/activation	
          1.76092193	         -2.86178956	          3.20450406	         -7.79890069	          2.34202617	          0.90173443	          0.00427298	         30.41705109	          1.35797239	         -8.59994269	         -8.14511801	         -3.65205082	         -9.62997595	        -11.56214830	        -27.87499135	          5.11627160	         -5.45314316	          0.33349100	         -6.76749312	          4.10966515	          4.68680591	         14.23057949	         37.91404541	         -3.16461476	         -0.43675298	          2.51058170	         -4.36193090	        -13.45389737	         12.52696761	          6.47615124	        -13.60062921	         19.22674278	         17.52099252	         36.90263482	         86.51662706	         86.51662706	          0.05000007	          0.05000012	          0.05000016	          0.05000021	          0.05000019	          0.05000084	          0.10237945	          0.07147990	          0.07147992	          0.07147989	          0.17466996	          0.05978278	          0.05978258	          0.05000082	          0.05000028	          0.21758733	          0.05961188	          0.05977033	          0.07148026	          0.05000020	          0.05000011	          0.05000029	          0.14880993	          0.16068229	          0.12795256	          0.15900683	          0.11395823	          0.05000001	          0.05000001	          0.05000001	          0.05000001	          0.12217768	          0.10218765	          0.07667885	          0.29175105	          0.05000004	          0.05000003	          0.60587046	          0.16840595	          0.32978711	          0.44943213	          0.71346188	          0.63121966	          0.05000000	          0.19198015	          0.12218130	          0.20884600	          0.05000004	          0.05000001	          0.36049829	          0.09892895	          0.05000010	          0.05000035	          0.05000003	          0.05000003	          0.05000001	          0.05000011	          0.11321344	          0.08730356	          0.05000025	          0.15018793	          0.16249739	          0.37585687	          0.05000057	          0.05000006	          0.05000084	          0.05000053	          0.05000022	          0.05978284	          0.08063743	          0.05000001	          0.05000004	          0.05000035	          0.83663151	          0.19388731	          0.19984578	          0.15628640	          0.35907901	          0.57938244	          0.06263636	          0.80194320	          0.87583892	          0.81323675	          0.05000000	          0.65595766	          0.71363883	          0.05000001	          0.05000000	          0.08546554	          0.05000001	          0.05854697	          0.05978266	
          1.77266141	         -2.87031893	          3.23011420	         -8.29704008	          2.36095335	          0.89930225	          0.00377806	         30.80980382	          1.24198597	         -8.52770028	         -9.80049771	         -4.09910193	        -10.21094876	        -12.98659546	        -26.60550005	          4.73851363	         -6.84341970	          0.21119983	         -6.65515946	          4.14387695	          4.24969988	         15.25361690	         39.68748119	         -3.02941929	         -0.53220848	          2.64780298	         -5.63209108	        -13.45008740	         12.40069474	          6.36966802	        -13.55203248	         19.29428412	         16.94046119	         38.56880891	         86.51662706	         86.51662706	          0.05997212	          0.05000073	          0.05524226	          0.05000050	          0.05000533	          0.05000067	          0.08562603	          0.05978291	          0.05978292	          0.05978289	          0.14608706	          0.05000008	          0.05000003	          0.05000005	          0.05000005	          0.27850587	          0.10218714	          0.05000042	          0.05978322	          0.05000025	          0.05000018	          0.12608241	          0.12445876	          0.14000377	          0.10701437	          0.13298698	          0.09531016	          0.05000000	          0.05000000	          0.05000000	          0.05000000	          0.10218447	          0.08546563	          0.06453607	          0.29391986	          0.05978289	          0.05978290	          0.57906636	          0.22682081	          0.42825571	          0.37588687	          0.77288896	          0.79312589	          0.05000003	          0.21131675	          0.10218753	          0.17467036	          0.05000006	          0.05000001	          0.30150622	          0.08274036	          0.05000014	          0.05000052	          0.05000004	          0.05000005	          0.05000001	          0.05000006	          0.09468718	          0.21675369	          0.05000020	          0.19773127	          0.15826048	          0.31435166	          0.05000017	          0.05000005	          0.05000067	          0.05000053	          0.05000035	          0.05000002	          0.17260605	          0.05000000	          0.05000004	          0.05000039	          0.74909266	          0.16559512	          0.16714338	          0.13071194	          0.35807953	          0.58008672	          0.06293925	          0.71421421	          0.86911193	          0.68015846	          0.05000000	          0.57893895	          0.59685867	          0.05000003	          0.05000000	          0.07147993	          0.05000000	          0.06514624	          0.05000001	
          1.78440089	         -2.87753300	          3.24886631	         -8.75418468	          2.38026358	          0.89679928	          0.00323876	         31.23743737	          1.15556635	         -8.42015092	        -11.47401308	         -4.53980290	        -10.74331863	        -15.23919552	        -25.29716526	          3.91586589	         -8.44806103	          0.08523480	         -6.51154578	          4.25775354	          3.76319920	         16.31679521	         41.49531893	         -2.88596750	         -0.64002306	          2.78411204	         -6.99290065	        -13.45651264	         12.40280166	          6.15408780	        -13.51940032	         19.32783040	         16.56766250	         40.26564099	         86.51662706	         86.51662706	          0.16317871	          0.05000007	          0.05000002	          0.06103210	          0.05000050	          0.05000026	          0.07161415	          0.05000001	          0.05000002	          0.05000000	          0.12218134	          0.05978323	          0.05978290	          0.05978242	          0.05000124	          0.36228289	          0.08546535	          0.07146463	          0.05000028	          0.05000005	          0.18828247	          0.32733806	          0.10409228	          0.11709350	          0.08950251	          0.11122527	          0.22568863	          0.08546566	          0.13983136	          0.15747523	          0.11480002	          0.08546296	          0.07148000	          0.05978289	          0.27661316	          0.05000000	          0.05000001	          0.71697509	          0.18970752	          0.35817578	          0.64989232	          0.82086031	          0.73215261	          0.07268259	          0.18520340	          0.08546552	          0.14608723	          0.05000022	          0.05000038	          0.25216762	          0.06920075	          0.05000106	          0.05000031	          0.05000003	          0.05000005	          0.05000001	          0.05000015	          0.10299801	          0.42410010	          0.26514274	          0.16539741	          0.13236273	          0.26291116	          0.05000120	          0.05000011	          0.05001187	          0.05001379	          0.05978316	          0.05000016	          0.30776856	          0.09019263	          0.05000055	          0.06330342	          0.62792238	          0.13849708	          0.13979198	          0.10932219	          0.36403833	          0.59112555	          0.06808352	          0.59733990	          0.85959515	          0.56885706	          0.11021594	          0.52280080	          0.49918847	          0.05000000	          0.05000000	          0.05978292	          0.05000003	          0.05590094	          0.05000002	
          1.79614037	         -2.88463144	          3.24853427	         -9.16287628	          2.39984926	          0.89437552	          0.00266407	         31.55097068	          1.12978789	         -8.26440737	        -13.08108099	         -4.96423382	        -11.16190134	        -17.87709658	        -24.08698087	          3.25138571	        -10.30657420	         -0.08596638	         -6.31575192	          4.54327426	          3.28207136	         17.19103835	         43.11381414	         -2.73943963	         -0.74994874	          2.91679897	         -8.39978924	        -13.46242477	         12.50235274	          5.84460839	        -13.51004710	         19.36172061	         16.34132628	         41.97889328	         86.51662706	         86.51662706	          0.25288188	          0.28034278	          0.32442085	          0.05104490	          0.13999644	          0.26377229	          0.09911649	          0.15645559	          0.11103950	          0.10224882	          0.10218762	          0.05000030	          0.05000002	          0.05000002	          0.05000002	          0.41166293	          0.07147978	          0.05977035	          0.23288792	          0.16643882	          0.26202239	          0.42269779	          0.08705858	          0.09793228	          0.07485633	          0.09302467	          0.18875693	          0.07148003	          0.11694929	          0.13170592	          0.09601410	          0.07147777	          0.05978298	          0.05000000	          0.32738582	          0.16686742	          0.08546567	          0.71719016	          0.15866372	          0.45196009	          0.80360067	          0.89950831	          0.74652730	          0.08073710	          0.18004805	          0.07147990	          0.12218146	          0.05000007	          0.05000007	          0.21090282	          0.05787681	          0.05000039	          0.05000039	          0.05000005	          0.05000007	          0.05000004	          0.05000273	          0.34638256	          0.35470056	          0.22175487	          0.13833244	          0.11070290	          0.21988843	          0.07906656	          0.05000031	          0.05000063	          0.05000043	          0.05000074	          0.05000011	          0.46104918	          0.12658011	          0.07434357	          0.05294494	          0.52516896	          0.11583337	          0.11691637	          0.09143267	          0.37925170	          0.61168113	          0.08772510	          0.49959094	          0.73658352	          0.47576906	          0.34936402	          0.48494151	          0.41750105	          0.35644649	          0.05000000	          0.05000002	          0.08442979	          0.05000000	          0.05000002	
